<?xml version="1.0" encoding="utf-8"?>
<!-- Generator: Adobe Illustrator 25.4.1, SVG Export Plug-In . SVG Version: 6.00 Build 0)  -->
<svg version="1.1" id="Layer_1" xmlns="http://www.w3.org/2000/svg" xmlns:xlink="http://www.w3.org/1999/xlink" x="0px" y="0px"
	 viewBox="0 0 2000 2000" style="enable-background:new 0 0 2000 2000;" xml:space="preserve">
<style type="text/css">
	.st0{fill:#2B2B2B;}
	.st1{fill:#148B14;}
</style>
<g>
	<path class="st0" d="M965.2,1999.5c-90.8,0-164.7-73.9-164.7-164.7v-659.5c0-90.8,73.9-164.7,164.7-164.7h69.5
		c90.8,0,164.7,73.9,164.7,164.7v659.5c0,90.8-73.9,164.7-164.7,164.7H965.2z"/>
	<path d="M1034.8,1011c43.9,0,85.1,17.1,116.1,48.1c31,31,48.1,72.3,48.1,116.1v659.5c0,43.9-17.1,85.1-48.1,116.1
		c-31,31-72.3,48.1-116.1,48.1h-69.5c-43.9,0-85.1-17.1-116.1-48.1c-31-31-48.1-72.3-48.1-116.1v-659.5c0-43.9,17.1-85.1,48.1-116.1
		c31-31,72.3-48.1,116.1-48.1H1034.8 M1034.8,1010h-69.5c-91.3,0-165.2,74-165.2,165.2v659.5c0,91.3,74,165.2,165.2,165.2h69.5
		c91.3,0,165.2-74,165.2-165.2v-659.5C1200,1084,1126,1010,1034.8,1010L1034.8,1010z"/>
</g>
<path class="st1" d="M1438.5,583l-80.7-46.6c8.2-44,8.2-89.1,0-133.1l80.7-46.6c9.3-5.3,13.5-16.3,10.4-26.5
	c-21-67.5-56.9-128.5-103.7-179.3c-7.2-7.8-19-9.7-28.1-4.4l-80.7,46.6c-33.9-29.2-73-51.7-115.2-66.5V33.6
	c0-10.6-7.4-19.9-17.8-22.2c-69.6-15.5-140.8-14.8-207,0c-10.4,2.3-17.8,11.6-17.8,22.2v93.3c-42.1,15-81.1,37.5-115.2,66.5
	l-80.6-46.6c-9.3-5.3-20.8-3.6-28.1,4.4c-46.8,50.6-82.6,111.6-103.7,179.3c-3.2,10.2,1.1,21.2,10.4,26.5l80.7,46.6
	c-8.2,44-8.2,89.1,0,133.1l-80.7,46.6c-9.3,5.3-13.5,16.3-10.4,26.5c21,67.5,56.9,128.5,103.7,179.3c7.2,7.8,19,9.7,28.1,4.4
	l80.7-46.6c33.9,29.2,73,51.7,115.2,66.5v93.3c0,10.6,7.4,19.9,17.8,22.2c69.6,15.5,140.8,14.8,207,0c10.4-2.3,17.8-11.6,17.8-22.2
	v-93.3c42.1-15,81.1-37.5,115.2-66.5l80.7,46.6c9.3,5.3,20.8,3.6,28.1-4.4c46.8-50.6,82.6-111.6,103.7-179.3
	C1452,599.3,1447.8,588.3,1438.5,583z M999.9,621.5c-83.6,0-151.6-68-151.6-151.6s68-151.6,151.6-151.6s151.6,68,151.6,151.6
	S1083.5,621.5,999.9,621.5z"/>
</svg>
